<svg width="95" height="94" viewBox="0 0 95 94" fill="none" xmlns="http://www.w3.org/2000/svg">
<g filter="url(#filter0_dd_264_4159)">
<path d="M15.3281 37C15.3281 19.3269 29.655 5 47.3281 5C65.0012 5 79.3281 19.3269 79.3281 37C79.3281 54.6731 65.0012 69 47.3281 69C29.655 69 15.3281 54.6731 15.3281 37Z" fill="url(#paint0_linear_264_4159)"/>
<path d="M58.5022 28.0736L60.7758 25.8C61.2113 25.3645 61.2113 24.6584 60.7758 24.2229C60.3403 23.7874 59.6342 23.7874 59.1987 24.2229L56.9251 26.4965C47.5909 18.4884 33 25.1103 33 37.501C33 45.495 39.5036 51.9986 47.4977 51.9986C59.8811 51.9986 66.5164 37.4148 58.5022 28.0736ZM47.4977 49.7683C40.7335 49.7683 35.2305 44.2652 35.2305 37.501C35.2305 27.1049 47.4052 21.4576 55.3433 28.0783L54.2119 29.2097C47.2901 23.5938 36.8236 28.5122 36.8236 37.501C36.8236 43.3867 41.612 48.1751 47.4977 48.1751C56.4844 48.1751 61.4064 37.7104 55.789 30.7868L56.9204 29.6554C63.5424 37.595 57.8921 49.7683 47.4977 49.7683ZM47.4976 40.528C49.6684 40.528 51.1411 38.2948 50.2756 36.3001L51.4554 35.1202C53.3053 38.1841 51.0864 42.1211 47.4977 42.1211C44.9501 42.1211 42.8776 40.0485 42.8776 37.501C42.8776 33.9085 46.8187 31.6956 49.8785 33.5431L48.6986 34.723C46.7043 33.8576 44.4707 35.3305 44.4707 37.501C44.4706 39.1701 45.8285 40.528 47.4976 40.528ZM51.4866 31.9349C46.976 28.6932 40.6471 31.9326 40.6471 37.501C40.6471 41.2784 43.7203 44.3516 47.4977 44.3516C53.0733 44.3516 56.3002 38.0154 53.0638 33.5121L54.2018 32.3741C58.4333 37.8942 54.49 45.9448 47.4977 45.9448C42.8418 45.9448 39.054 42.1569 39.054 37.5011C39.054 30.5057 47.1078 26.568 52.6247 30.797L51.4866 31.9349Z" fill="white"/>
</g>
<defs>
<filter id="filter0_dd_264_4159" x="0.328125" y="0" width="94" height="94" filterUnits="userSpaceOnUse" color-interpolation-filters="sRGB">
<feFlood flood-opacity="0" result="BackgroundImageFix"/>
<feColorMatrix in="SourceAlpha" type="matrix" values="0 0 0 0 0 0 0 0 0 0 0 0 0 0 0 0 0 0 127 0" result="hardAlpha"/>
<feOffset dy="10"/>
<feGaussianBlur stdDeviation="7.5"/>
<feColorMatrix type="matrix" values="0 0 0 0 0.0941176 0 0 0 0 0.647059 0 0 0 0 0.972549 0 0 0 0.2 0"/>
<feBlend mode="normal" in2="BackgroundImageFix" result="effect1_dropShadow_264_4159"/>
<feColorMatrix in="SourceAlpha" type="matrix" values="0 0 0 0 0 0 0 0 0 0 0 0 0 0 0 0 0 0 127 0" result="hardAlpha"/>
<feOffset dy="4"/>
<feGaussianBlur stdDeviation="3"/>
<feColorMatrix type="matrix" values="0 0 0 0 0.0941176 0 0 0 0 0.647059 0 0 0 0 0.972549 0 0 0 0.2 0"/>
<feBlend mode="normal" in2="effect1_dropShadow_264_4159" result="effect2_dropShadow_264_4159"/>
<feBlend mode="normal" in="SourceGraphic" in2="effect2_dropShadow_264_4159" result="shape"/>
</filter>
<linearGradient id="paint0_linear_264_4159" x1="15.3281" y1="37" x2="79.3281" y2="37" gradientUnits="userSpaceOnUse">
<stop stop-color="#18A5F8"/>
<stop offset="1" stop-color="#9A1794"/>
</linearGradient>
</defs>
</svg>
