<svg width="28" height="30" viewBox="0 0 28 30" fill="none" xmlns="http://www.w3.org/2000/svg">
<g clip-path="url(#clip0_215_4534)">
<g clip-path="url(#clip1_215_4534)">
<path d="M25.25 0C26.2871 0 27.125 0.837891 27.125 1.875C27.125 5.37891 25.3496 8.17383 23.0586 10.4648C21.418 12.1055 19.3965 13.5996 17.3574 15L17.2109 15.0996C16.5137 15.5742 15.8164 16.043 15.1309 16.5L15.0371 16.5586C14.6855 16.793 14.3398 17.0215 13.9941 17.2559C12.7695 18.0762 11.6035 18.8789 10.5195 19.6875H17.4746C16.9004 19.2539 16.2969 18.8262 15.6758 18.3926L16.0859 18.1172L16.2617 18C17.1465 17.4082 18.0723 16.793 18.998 16.1484C20.4629 17.209 21.8633 18.334 23.0645 19.5293C25.3496 21.8262 27.125 24.6211 27.125 28.125C27.125 29.1621 26.2871 30 25.25 30C24.2129 30 23.375 29.1621 23.375 28.125H4.625C4.625 29.1621 3.78711 30 2.75 30C1.71289 30 0.875 29.1621 0.875 28.125C0.875 24.6211 2.65039 21.8262 4.94141 19.5352C6.58203 17.8945 8.60352 16.4004 10.6426 15C8.60352 13.5996 6.58203 12.1113 4.94141 10.4648C2.65039 8.17383 0.875 5.37891 0.875 1.875C0.875 0.837891 1.71289 0 2.75 0C3.78711 0 4.625 0.837891 4.625 1.875H23.375C23.375 0.837891 24.2129 0 25.25 0ZM20.7148 22.5H7.28516C6.69336 23.1211 6.19531 23.748 5.79102 24.375H22.209C21.8105 23.748 21.3125 23.1211 20.7148 22.5ZM7.28516 7.5H20.7148C21.3066 6.87305 21.8047 6.25195 22.209 5.625H5.79102C6.18945 6.25195 6.6875 6.87305 7.28516 7.5ZM10.5312 10.3125C11.6094 11.1211 12.7812 11.9238 14.0059 12.7441C15.2305 11.9238 16.3965 11.1211 17.4805 10.3125H10.5254H10.5312Z" fill="#18A5F8"/>
</g>
</g>
<defs>
<clipPath id="clip0_215_4534">
<rect width="26.25" height="30" fill="white" transform="translate(0.875)"/>
</clipPath>
<clipPath id="clip1_215_4534">
<path d="M0.875 0H27.125V30H0.875V0Z" fill="white"/>
</clipPath>
</defs>
</svg>
