<svg width="25" height="24" viewBox="0 0 25 24" fill="none" xmlns="http://www.w3.org/2000/svg">
<path d="M8.95312 0C10.4016 0 11.5781 1.17656 11.5781 2.625V21.375C11.5781 22.8234 10.4016 24 8.95312 24C7.59844 24 6.48281 22.9734 6.34219 21.6516C6.09844 21.7172 5.84062 21.75 5.57812 21.75C3.92344 21.75 2.57812 20.4047 2.57812 18.75C2.57812 18.4031 2.63906 18.0656 2.74687 17.7562C1.33125 17.2219 0.328125 15.8531 0.328125 14.25C0.328125 12.7547 1.20469 11.4609 2.475 10.8609C2.06719 10.35 1.82812 9.70312 1.82812 9C1.82812 7.56094 2.84063 6.36094 4.19063 6.06562C4.11563 5.80781 4.07812 5.53125 4.07812 5.25C4.07812 3.84844 5.04375 2.66719 6.34219 2.33906C6.48281 1.02656 7.59844 0 8.95312 0ZM15.7031 0C17.0578 0 18.1688 1.02656 18.3141 2.33906C19.6172 2.66719 20.5781 3.84375 20.5781 5.25C20.5781 5.53125 20.5406 5.80781 20.4656 6.06562C21.8156 6.35625 22.8281 7.56094 22.8281 9C22.8281 9.70312 22.5891 10.35 22.1813 10.8609C23.4516 11.4609 24.3281 12.7547 24.3281 14.25C24.3281 15.8531 23.325 17.2219 21.9094 17.7562C22.0172 18.0656 22.0781 18.4031 22.0781 18.75C22.0781 20.4047 20.7328 21.75 19.0781 21.75C18.8156 21.75 18.5578 21.7172 18.3141 21.6516C18.1734 22.9734 17.0578 24 15.7031 24C14.2547 24 13.0781 22.8234 13.0781 21.375V2.625C13.0781 1.17656 14.2547 0 15.7031 0Z" fill="white"/>
</svg>