<svg width="17" height="16" viewBox="0 0 17 16" fill="none" xmlns="http://www.w3.org/2000/svg">
<path d="M8.09375 0C10.2155 0 12.2503 0.842855 13.7506 2.34315C15.2509 3.84344 16.0938 5.87827 16.0938 8C16.0938 10.1217 15.2509 12.1566 13.7506 13.6569C12.2503 15.1571 10.2155 16 8.09375 16C5.97202 16 3.93719 15.1571 2.4369 13.6569C0.936605 12.1566 0.09375 10.1217 0.09375 8C0.09375 5.87827 0.936605 3.84344 2.4369 2.34315C3.93719 0.842855 5.97202 0 8.09375 0ZM7.34375 3.75V8C7.34375 8.25 7.46875 8.48438 7.67812 8.625L10.6781 10.625C11.0219 10.8562 11.4875 10.7625 11.7188 10.4156C11.95 10.0687 11.8562 9.60625 11.5094 9.375L8.84375 7.6V3.75C8.84375 3.33437 8.50937 3 8.09375 3C7.67812 3 7.34375 3.33437 7.34375 3.75Z" fill="#18A5F8"/>
</svg>