<svg width="38" height="30" viewBox="0 0 38 30" fill="none" xmlns="http://www.w3.org/2000/svg">
<g clip-path="url(#clip0_215_4528)">
<g clip-path="url(#clip1_215_4528)">
<path d="M0.25 19.6875C0.25 24.3457 4.0293 28.125 8.6875 28.125H30.25C34.3926 28.125 37.75 24.7676 37.75 20.625C37.75 16.998 35.1719 13.9688 31.75 13.2773C31.9902 12.6504 32.125 11.9648 32.125 11.25C32.125 8.14453 29.6055 5.625 26.5 5.625C25.3457 5.625 24.2676 5.97656 23.377 6.57422C21.7539 3.76172 18.7246 1.875 15.25 1.875C10.0703 1.875 5.875 6.07031 5.875 11.25C5.875 11.4082 5.88086 11.5664 5.88672 11.7246C2.60547 12.8789 0.25 16.0078 0.25 19.6875Z" fill="#18A5F8"/>
</g>
</g>
<defs>
<clipPath id="clip0_215_4528">
<rect width="37.5" height="30" fill="white" transform="translate(0.25)"/>
</clipPath>
<clipPath id="clip1_215_4528">
<path d="M0.25 0H37.75V30H0.25V0Z" fill="white"/>
</clipPath>
</defs>
</svg>
