<svg width="24" height="30" viewBox="0 0 24 30" fill="none" xmlns="http://www.w3.org/2000/svg">
<g clip-path="url(#clip0_215_4557)">
<path d="M3.5625 0C2.00977 0 0.75 1.25977 0.75 2.8125V27.1875C0.75 28.7402 2.00977 30 3.5625 30H9.1875V25.3125C9.1875 23.7598 10.4473 22.5 12 22.5C13.5527 22.5 14.8125 23.7598 14.8125 25.3125V30H20.4375C21.9902 30 23.25 28.7402 23.25 27.1875V2.8125C23.25 1.25977 21.9902 0 20.4375 0H3.5625ZM4.5 14.0625C4.5 13.5469 4.92188 13.125 5.4375 13.125H7.3125C7.82812 13.125 8.25 13.5469 8.25 14.0625V15.9375C8.25 16.4531 7.82812 16.875 7.3125 16.875H5.4375C4.92188 16.875 4.5 16.4531 4.5 15.9375V14.0625ZM11.0625 13.125H12.9375C13.4531 13.125 13.875 13.5469 13.875 14.0625V15.9375C13.875 16.4531 13.4531 16.875 12.9375 16.875H11.0625C10.5469 16.875 10.125 16.4531 10.125 15.9375V14.0625C10.125 13.5469 10.5469 13.125 11.0625 13.125ZM15.75 14.0625C15.75 13.5469 16.1719 13.125 16.6875 13.125H18.5625C19.0781 13.125 19.5 13.5469 19.5 14.0625V15.9375C19.5 16.4531 19.0781 16.875 18.5625 16.875H16.6875C16.1719 16.875 15.75 16.4531 15.75 15.9375V14.0625ZM5.4375 5.625H7.3125C7.82812 5.625 8.25 6.04688 8.25 6.5625V8.4375C8.25 8.95312 7.82812 9.375 7.3125 9.375H5.4375C4.92188 9.375 4.5 8.95312 4.5 8.4375V6.5625C4.5 6.04688 4.92188 5.625 5.4375 5.625ZM10.125 6.5625C10.125 6.04688 10.5469 5.625 11.0625 5.625H12.9375C13.4531 5.625 13.875 6.04688 13.875 6.5625V8.4375C13.875 8.95312 13.4531 9.375 12.9375 9.375H11.0625C10.5469 9.375 10.125 8.95312 10.125 8.4375V6.5625ZM16.6875 5.625H18.5625C19.0781 5.625 19.5 6.04688 19.5 6.5625V8.4375C19.5 8.95312 19.0781 9.375 18.5625 9.375H16.6875C16.1719 9.375 15.75 8.95312 15.75 8.4375V6.5625C15.75 6.04688 16.1719 5.625 16.6875 5.625Z" fill="#18A5F8"/>
</g>
<defs>
<clipPath id="clip0_215_4557">
<path d="M0.75 0H23.25V30H0.75V0Z" fill="white"/>
</clipPath>
</defs>
</svg>
