<svg width="30" height="24" viewBox="0 0 30 24" fill="none" xmlns="http://www.w3.org/2000/svg">
<path d="M14.5391 6.34219C14.8719 6.04687 15.0031 5.58281 14.8297 5.17031C14.7219 4.92187 14.6047 4.67812 14.4734 4.44375L14.3281 4.19062C14.1875 3.95625 14.0328 3.72656 13.8688 3.50625C13.6016 3.15 13.1328 3.03281 12.7109 3.17344L11.3891 3.60937C10.8875 3.19687 10.3109 2.85937 9.69219 2.62969L9.40625 1.27031C9.31719 0.834375 8.97969 0.4875 8.53907 0.435938C8.22969 0.39375 7.91563 0.375 7.59688 0.375H7.56407C7.24532 0.375 6.93125 0.39375 6.62188 0.43125C6.18125 0.482812 5.84375 0.834375 5.75469 1.26562L5.46875 2.62969C4.84532 2.86406 4.27344 3.19687 3.77188 3.60937L2.44532 3.17812C2.02344 3.0375 1.55469 3.15469 1.2875 3.51094C1.12344 3.73125 0.968754 3.96094 0.823442 4.19531L0.682817 4.44375C0.551567 4.67812 0.434379 4.92187 0.326567 5.175C0.153129 5.58281 0.284379 6.04687 0.617192 6.34687L1.65782 7.275C1.60625 7.58906 1.57813 7.91719 1.57813 8.25C1.57813 8.58281 1.60625 8.91094 1.65782 9.22969L0.617192 10.1578C0.284379 10.4531 0.153129 10.9172 0.326567 11.3297C0.434379 11.5781 0.551567 11.8219 0.682817 12.0609L0.823442 12.3047C0.964067 12.5437 1.11875 12.7687 1.2875 12.9891C1.55469 13.3453 2.02344 13.4625 2.44532 13.3219L3.76719 12.8859C4.26875 13.2984 4.84532 13.6359 5.46407 13.8656L5.75 15.2297C5.83907 15.6656 6.17657 16.0125 6.61719 16.0641C6.93125 16.1016 7.25 16.1203 7.57344 16.1203C7.89688 16.1203 8.21563 16.1016 8.52969 16.0641C8.97032 16.0125 9.30782 15.6609 9.39688 15.2297L9.68282 13.8656C10.3063 13.6312 10.8781 13.2984 11.3797 12.8859L12.7016 13.3219C13.1234 13.4625 13.5922 13.3453 13.8594 12.9891C14.0234 12.7687 14.1781 12.5437 14.3188 12.3047L14.4641 12.0516C14.5953 11.8172 14.7125 11.5734 14.8203 11.325C14.9938 10.9172 14.8625 10.4531 14.5297 10.1531L13.4891 9.225C13.5406 8.90625 13.5688 8.57812 13.5688 8.24531C13.5688 7.9125 13.5406 7.58437 13.4891 7.26562L14.5297 6.3375L14.5391 6.34219ZM5.32813 8.25C5.32813 7.65326 5.56518 7.08097 5.98714 6.65901C6.4091 6.23705 6.98139 6 7.57813 6C8.17487 6 8.74716 6.23705 9.16912 6.65901C9.59108 7.08097 9.82813 7.65326 9.82813 8.25C9.82813 8.84674 9.59108 9.41903 9.16912 9.84099C8.74716 10.2629 8.17487 10.5 7.57813 10.5C6.98139 10.5 6.4091 10.2629 5.98714 9.84099C5.56518 9.41903 5.32813 8.84674 5.32813 8.25ZM23.7359 23.4609C24.0313 23.7937 24.4953 23.925 24.9078 23.7516C25.1563 23.6437 25.4 23.5266 25.6344 23.3953L25.8875 23.25C26.1219 23.1094 26.3516 22.9547 26.5719 22.7906C26.9281 22.5234 27.0453 22.0547 26.9047 21.6328L26.4688 20.3109C26.8813 19.8094 27.2188 19.2328 27.4484 18.6141L28.8125 18.3281C29.2484 18.2391 29.5953 17.9016 29.6469 17.4609C29.6844 17.1469 29.7031 16.8281 29.7031 16.5047C29.7031 16.1812 29.6844 15.8625 29.6469 15.5484C29.5953 15.1078 29.2438 14.7703 28.8125 14.6812L27.4484 14.3906C27.2141 13.7672 26.8813 13.1953 26.4688 12.6937L26.9047 11.3719C27.0453 10.95 26.9281 10.4812 26.5719 10.2141C26.3516 10.05 26.1219 9.89531 25.8875 9.75L25.6391 9.60937C25.4047 9.47812 25.1609 9.36094 24.9078 9.25312C24.5 9.07969 24.0359 9.21094 23.7359 9.54375L22.8078 10.5844C22.4891 10.5328 22.1609 10.5047 21.8281 10.5047C21.4953 10.5047 21.1672 10.5328 20.8484 10.5844L19.9203 9.54375C19.625 9.21094 19.1609 9.07969 18.7484 9.25312C18.5 9.36094 18.2563 9.47812 18.0172 9.60937L17.7734 9.75C17.5344 9.89062 17.3094 10.0453 17.0891 10.2141C16.7328 10.4812 16.6156 10.95 16.7563 11.3719L17.1922 12.6937C16.7797 13.1953 16.4422 13.7719 16.2125 14.3906L14.8484 14.6719C14.4125 14.7609 14.0656 15.0984 14.0141 15.5391C13.9766 15.8531 13.9578 16.1719 13.9578 16.4953C13.9578 16.8187 13.9766 17.1375 14.0141 17.4516C14.0656 17.8922 14.4172 18.2297 14.8484 18.3187L16.2125 18.6047C16.4469 19.2281 16.7797 19.8 17.1922 20.3016L16.7563 21.6234C16.6156 22.0453 16.7328 22.5141 17.0891 22.7812C17.3094 22.9453 17.5344 23.1 17.7734 23.2406L18.0266 23.3859C18.2609 23.5172 18.5047 23.6344 18.7531 23.7422C19.1609 23.9156 19.625 23.7844 19.925 23.4516L20.8531 22.4109C21.1719 22.4625 21.5 22.4906 21.8328 22.4906C22.1656 22.4906 22.4938 22.4625 22.8125 22.4109L23.7406 23.4516L23.7359 23.4609ZM21.8281 14.25C22.1236 14.25 22.4162 14.3082 22.6892 14.4213C22.9622 14.5343 23.2102 14.7001 23.4191 14.909C23.6281 15.1179 23.7938 15.366 23.9069 15.639C24.0199 15.9119 24.0781 16.2045 24.0781 16.5C24.0781 16.7955 24.0199 17.0881 23.9069 17.361C23.7938 17.634 23.6281 17.8821 23.4191 18.091C23.2102 18.2999 22.9622 18.4657 22.6892 18.5787C22.4162 18.6918 22.1236 18.75 21.8281 18.75C21.5327 18.75 21.2401 18.6918 20.9671 18.5787C20.6941 18.4657 20.4461 18.2999 20.2371 18.091C20.0282 17.8821 19.8625 17.634 19.7494 17.361C19.6363 17.0881 19.5781 16.7955 19.5781 16.5C19.5781 16.2045 19.6363 15.9119 19.7494 15.639C19.8625 15.366 20.0282 15.1179 20.2371 14.909C20.4461 14.7001 20.6941 14.5343 20.9671 14.4213C21.2401 14.3082 21.5327 14.25 21.8281 14.25Z" fill="white"/>
</svg>