<svg width="17" height="16" viewBox="0 0 17 16" fill="none" xmlns="http://www.w3.org/2000/svg">
<path d="M5.53438 12.0283L4.56875 11.0627C4.30312 10.7971 4.20937 10.4127 4.32812 10.0565C4.42187 9.77834 4.54688 9.41584 4.69688 9.00021H1.39062C1.12187 9.00021 0.871875 8.85646 0.7375 8.62209C0.603125 8.38771 0.60625 8.10021 0.74375 7.86896L2.38437 5.10334C2.79062 4.41896 3.525 4.00021 4.31875 4.00021H6.89062C6.96562 3.87521 7.04063 3.75959 7.11562 3.64709C9.675 -0.127912 13.4875 -0.252912 15.7625 0.165838C16.125 0.231463 16.4062 0.515838 16.475 0.878338C16.8938 3.15646 16.7656 6.96584 12.9937 9.52521C12.8844 9.60021 12.7656 9.67521 12.6406 9.75021V12.3221C12.6406 13.1158 12.2219 13.8533 11.5375 14.2565L8.77188 15.8971C8.54063 16.0346 8.25313 16.0377 8.01875 15.9033C7.78438 15.769 7.64062 15.5221 7.64062 15.2502V11.9002C7.2 12.0533 6.81563 12.1783 6.525 12.2721C6.175 12.3846 5.79375 12.2877 5.53125 12.0283H5.53438ZM12.6406 5.25021C12.9721 5.25021 13.2901 5.11852 13.5245 4.8841C13.7589 4.64968 13.8906 4.33173 13.8906 4.00021C13.8906 3.66869 13.7589 3.35075 13.5245 3.11633C13.2901 2.88191 12.9721 2.75021 12.6406 2.75021C12.3091 2.75021 11.9912 2.88191 11.7567 3.11633C11.5223 3.35075 11.3906 3.66869 11.3906 4.00021C11.3906 4.33173 11.5223 4.64968 11.7567 4.8841C11.9912 5.11852 12.3091 5.25021 12.6406 5.25021Z" fill="white"/>
</svg>