<svg width="16" height="16" viewBox="0 0 16 16" fill="none" xmlns="http://www.w3.org/2000/svg">
<path d="M4.6875 13.9906L4.29375 14.9125C3.70937 14.6156 3.17188 14.25 2.68438 13.8219L3.39375 13.1125C3.78437 13.4531 4.21875 13.75 4.6875 13.9906ZM1.06562 8.5H0.0625C0.10625 9.1625 0.23125 9.80313 0.428125 10.4094L1.35938 10.0375C1.20625 9.54688 1.10312 9.03125 1.06562 8.5ZM1.06562 7.5C1.10938 6.9125 1.22812 6.34375 1.4125 5.80937L0.490625 5.41563C0.25625 6.07188 0.109375 6.77187 0.0625 7.5H1.06562ZM1.80625 4.89062C2.05 4.425 2.34375 3.99062 2.68438 3.59375L1.975 2.88438C1.54687 3.37188 1.17812 3.90938 0.884375 4.49375L1.80625 4.89062ZM12.2031 13.1125C11.7688 13.4875 11.2844 13.8094 10.7625 14.0625L11.1344 14.9937C11.7812 14.6844 12.3781 14.2875 12.9125 13.8188L12.2031 13.1125ZM3.39062 2.8875C3.825 2.5125 4.30938 2.19062 4.83125 1.9375L4.45937 1.00625C3.8125 1.31562 3.21563 1.7125 2.68438 2.18125L3.39062 2.8875ZM13.7875 11.1094C13.5438 11.575 13.25 12.0094 12.9094 12.4062L13.6187 13.1156C14.0469 12.6281 14.4156 12.0875 14.7094 11.5063L13.7875 11.1094ZM14.5281 8.5C14.4844 9.0875 14.3656 9.65625 14.1812 10.1906L15.1031 10.5844C15.3375 9.925 15.4844 9.225 15.5281 8.49687H14.5281V8.5ZM9.83438 14.4375C9.34375 14.5938 8.82812 14.6937 8.29688 14.7312V15.7344C8.95938 15.6906 9.6 15.5656 10.2063 15.3687L9.83438 14.4375ZM7.29688 14.7312C6.70937 14.6875 6.14062 14.5687 5.60625 14.3844L5.2125 15.3062C5.87188 15.5406 6.57188 15.6875 7.3 15.7312V14.7312H7.29688ZM14.2344 5.9625C14.3906 6.45312 14.4906 6.96875 14.5281 7.5H15.5312C15.4875 6.8375 15.3625 6.19687 15.1656 5.59062L14.2344 5.9625ZM2.68438 12.4062C2.30938 11.9719 1.9875 11.4875 1.73438 10.9656L0.803125 11.3375C1.1125 11.9844 1.50938 12.5813 1.97813 13.1156L2.68438 12.4062ZM8.29688 1.26875C8.88437 1.3125 9.45 1.43125 9.9875 1.61563L10.3813 0.69375C9.725 0.459375 9.025 0.3125 8.29688 0.265625V1.26875ZM5.75938 1.5625C6.25 1.40625 6.76562 1.30625 7.29688 1.26875V0.265625C6.63438 0.309375 5.99375 0.434375 5.3875 0.63125L5.75938 1.5625ZM13.6187 2.88438L12.9094 3.59375C13.2844 4.02813 13.6062 4.5125 13.8625 5.03438L14.7937 4.6625C14.4844 4.01562 14.0875 3.41875 13.6187 2.88438ZM12.2031 2.8875L12.9125 2.17812C12.425 1.75 11.8875 1.38125 11.3031 1.0875L10.9094 2.00938C11.3719 2.25313 11.8094 2.54688 12.2031 2.8875Z" fill="#18A5F8"/>
<path d="M7.79688 12.25C8.28012 12.25 8.67188 11.8582 8.67188 11.375C8.67188 10.8918 8.28012 10.5 7.79688 10.5C7.31363 10.5 6.92188 10.8918 6.92188 11.375C6.92188 11.8582 7.31363 12.25 7.79688 12.25Z" fill="#18A5F8"/>
<path d="M8.0375 9.75H7.5375C7.33125 9.75 7.1625 9.58125 7.1625 9.375C7.1625 7.15625 9.58125 7.37812 9.58125 6.00625C9.58125 5.38125 9.025 4.75 7.7875 4.75C6.87812 4.75 6.40312 5.05 5.9375 5.64687C5.81562 5.80312 5.59062 5.83438 5.43125 5.72188L5.02187 5.43437C4.84687 5.3125 4.80625 5.06562 4.94062 4.89687C5.60312 4.04687 6.39062 3.5 7.79062 3.5C9.425 3.5 10.8344 4.43125 10.8344 6.00625C10.8344 8.11875 8.41562 7.99062 8.41562 9.375C8.4125 9.58125 8.24375 9.75 8.0375 9.75Z" fill="#18A5F8"/>
</svg>