<svg width="17" height="16" viewBox="0 0 17 16" fill="none" xmlns="http://www.w3.org/2000/svg">
<g clip-path="url(#clip0_215_4586)">
<path d="M6.09375 1.5H10.5938C10.7312 1.5 10.8438 1.6125 10.8438 1.75V3H5.84375V1.75C5.84375 1.6125 5.95625 1.5 6.09375 1.5ZM4.34375 1.75V3H2.34375C1.24063 3 0.34375 3.89687 0.34375 5V8H6.34375H10.3438H16.3438V5C16.3438 3.89687 15.4469 3 14.3438 3H12.3438V1.75C12.3438 0.784375 11.5594 0 10.5938 0H6.09375C5.12813 0 4.34375 0.784375 4.34375 1.75ZM16.3438 9H10.3438V10C10.3438 10.5531 9.89688 11 9.34375 11H7.34375C6.79063 11 6.34375 10.5531 6.34375 10V9H0.34375V13C0.34375 14.1031 1.24063 15 2.34375 15H14.3438C15.4469 15 16.3438 14.1031 16.3438 13V9Z" fill="white"/>
</g>
<defs>
<clipPath id="clip0_215_4586">
<path d="M0.34375 0H16.3438V16H0.34375V0Z" fill="white"/>
</clipPath>
</defs>
</svg>
