<svg width="95" height="89" viewBox="0 0 95 89" fill="none" xmlns="http://www.w3.org/2000/svg">
<g filter="url(#filter0_dd_267_4081)">
<path d="M15.3281 32C15.3281 14.3269 29.655 0 47.3281 0V0C65.0012 0 79.3281 14.3269 79.3281 32V32C79.3281 49.6731 65.0012 64 47.3281 64V64C29.655 64 15.3281 49.6731 15.3281 32V32Z" fill="url(#paint0_linear_267_4081)"/>
<path d="M61.127 23.9652C61.7628 23.9652 62.2781 23.4498 62.2781 22.814V17.1511C62.2781 16.5154 61.7627 16 61.127 16H55.4651C54.8293 16 54.3139 16.5154 54.3139 17.1511V18.831H39.9643V17.1511C39.9643 16.5154 39.4489 16 38.8132 16H33.1511C32.5154 16 32 16.5154 32 17.1511V22.814C32 23.4498 32.5154 23.9651 33.1511 23.9651H34.831V41.0349H33.1511C32.5154 41.0349 32 41.5503 32 42.186V47.8488C32 48.4846 32.5154 48.9999 33.1511 48.9999H38.8131C39.4489 48.9999 39.9643 48.4845 39.9643 47.8488V46.169H54.3137V47.8488C54.3137 48.4846 54.8292 48.9999 55.4649 48.9999H61.1268C61.7626 48.9999 62.2779 48.4845 62.2779 47.8488V42.186C62.2779 41.5502 61.7625 41.0348 61.1268 41.0348H59.447V23.9652H61.127ZM34.3023 21.6629V18.3023H37.662C37.662 18.6579 37.662 21.3066 37.662 21.6629C37.308 21.6629 34.6584 21.6629 34.3023 21.6629ZM37.662 46.6977H34.3023V43.3371C34.6562 43.3371 37.306 43.3371 37.662 43.3371C37.662 43.6929 37.662 46.3419 37.662 46.6977ZM55.465 41.0348C54.8292 41.0348 54.3139 41.5502 54.3139 42.186V43.8666H39.9643V42.186C39.9643 41.5502 39.4489 41.0348 38.8132 41.0348H37.1334V23.9652H38.8132C39.449 23.9652 39.9643 23.4498 39.9643 22.814V21.1334H54.3138V22.814C54.3138 23.4498 54.8292 23.9652 55.4649 23.9652H57.1448V41.0348H55.465V41.0348ZM59.9758 43.3371V46.6977H56.6162C56.6162 46.3421 56.6162 43.6934 56.6162 43.3371C57.1022 43.3371 59.4879 43.3371 59.9758 43.3371ZM56.6161 21.6629C56.6161 21.3068 56.6161 18.6571 56.6161 18.3023H59.9757V21.6629C59.4898 21.6629 57.1041 21.6629 56.6161 21.6629Z" fill="white"/>
<path d="M52.3269 24.2827H41.9509C41.3152 24.2827 40.7998 24.7981 40.7998 25.4338V31.9824C40.7998 32.5994 41.2981 33.1335 41.9564 33.1335H52.3269C52.9627 33.1335 53.4781 32.6181 53.4781 31.9824V25.4338C53.4781 24.792 52.9521 24.2827 52.3269 24.2827ZM43.1021 26.585H48.346L43.1021 29.8946V26.585ZM51.1757 30.8313H45.9318L51.1757 27.5217V30.8313Z" fill="white"/>
<path d="M52.3269 34.5825H41.9509C41.3152 34.5825 40.7998 35.098 40.7998 35.7337C40.7998 36.3694 41.3152 36.8848 41.9509 36.8848H52.3269C52.9627 36.8848 53.4781 36.3694 53.4781 35.7337C53.4781 35.098 52.9626 34.5825 52.3269 34.5825Z" fill="white"/>
<path d="M52.3269 38.4146H41.9509C41.3152 38.4146 40.7998 38.93 40.7998 39.5657C40.7998 40.2014 41.3152 40.7168 41.9509 40.7168H52.3269C52.9627 40.7168 53.4781 40.2014 53.4781 39.5657C53.4781 38.93 52.9626 38.4146 52.3269 38.4146Z" fill="white"/>
</g>
<defs>
<filter id="filter0_dd_267_4081" x="0.328125" y="-5" width="94" height="94" filterUnits="userSpaceOnUse" color-interpolation-filters="sRGB">
<feFlood flood-opacity="0" result="BackgroundImageFix"/>
<feColorMatrix in="SourceAlpha" type="matrix" values="0 0 0 0 0 0 0 0 0 0 0 0 0 0 0 0 0 0 127 0" result="hardAlpha"/>
<feOffset dy="10"/>
<feGaussianBlur stdDeviation="7.5"/>
<feColorMatrix type="matrix" values="0 0 0 0 0.0941176 0 0 0 0 0.647059 0 0 0 0 0.972549 0 0 0 0.2 0"/>
<feBlend mode="normal" in2="BackgroundImageFix" result="effect1_dropShadow_267_4081"/>
<feColorMatrix in="SourceAlpha" type="matrix" values="0 0 0 0 0 0 0 0 0 0 0 0 0 0 0 0 0 0 127 0" result="hardAlpha"/>
<feOffset dy="4"/>
<feGaussianBlur stdDeviation="3"/>
<feColorMatrix type="matrix" values="0 0 0 0 0.0941176 0 0 0 0 0.647059 0 0 0 0 0.972549 0 0 0 0.2 0"/>
<feBlend mode="normal" in2="effect1_dropShadow_267_4081" result="effect2_dropShadow_267_4081"/>
<feBlend mode="normal" in="SourceGraphic" in2="effect2_dropShadow_267_4081" result="shape"/>
</filter>
<linearGradient id="paint0_linear_267_4081" x1="15.3281" y1="32" x2="79.3281" y2="32" gradientUnits="userSpaceOnUse">
<stop stop-color="#18A5F8"/>
<stop offset="1" stop-color="#9A1794"/>
</linearGradient>
</defs>
</svg>
