<svg width="17" height="16" viewBox="0 0 17 16" fill="none" xmlns="http://www.w3.org/2000/svg">
<g clip-path="url(#clip0_215_4591)">
<path d="M16.5469 2.5C16.5469 3.0625 16.1 3.58125 15.3469 4C14.4375 4.50313 13.0812 4.85938 11.525 4.96562C11.4094 4.90937 11.2937 4.85625 11.1719 4.80937C9.94063 4.29375 8.30312 4 6.54688 4C6.2875 4 6.03438 4.00625 5.78125 4.01875L5.74687 4C4.99375 3.58125 4.54688 3.0625 4.54688 2.5C4.54688 1.11875 7.23438 0 10.5469 0C13.8594 0 16.5469 1.11875 16.5469 2.5ZM5.56875 5.03438C5.8875 5.0125 6.21562 5 6.54688 5C8.49062 5 10.2156 5.38437 11.3125 5.98125C12.0875 6.40312 12.5469 6.92812 12.5469 7.5C12.5469 7.625 12.525 7.74687 12.4812 7.86562C12.3375 8.27812 11.95 8.65625 11.3875 8.975C11.3844 8.97813 11.3781 8.97812 11.375 8.98125C11.3656 8.9875 11.3562 8.99062 11.3469 8.99687C10.2531 9.60312 8.50938 9.99687 6.54688 9.99687C4.68437 9.99687 3.01875 9.64375 1.91562 9.0875C1.85625 9.05937 1.8 9.02812 1.74375 8.99687C0.99375 8.58125 0.546875 8.0625 0.546875 7.5C0.546875 6.4125 2.21563 5.48438 4.54688 5.14375C4.875 5.09688 5.21562 5.05938 5.56875 5.03438ZM13.5469 7.5C13.5469 6.81563 13.2156 6.25313 12.7937 5.83125C13.6781 5.69375 14.4875 5.475 15.175 5.19063C15.6844 4.97813 16.1594 4.71563 16.5469 4.39375V5.5C16.5469 6.10313 16.0312 6.65937 15.1781 7.09062C14.7219 7.32187 14.1656 7.51875 13.5406 7.66875C13.5437 7.6125 13.5469 7.55938 13.5469 7.50313V7.5ZM12.5469 10.5C12.5469 11.0625 12.1 11.5813 11.3469 12C11.2906 12.0312 11.2344 12.0594 11.175 12.0906C10.075 12.6469 8.40938 13 6.54688 13C4.58437 13 2.84063 12.6062 1.74688 12C0.99375 11.5813 0.546875 11.0625 0.546875 10.5V9.39375C0.9375 9.71562 1.40938 9.97813 1.91875 10.1906C3.15313 10.7063 4.79063 11 6.54688 11C8.30312 11 9.94063 10.7063 11.175 10.1906C11.4187 10.0906 11.6531 9.975 11.875 9.85C12.0656 9.74375 12.2438 9.625 12.4125 9.5C12.4594 9.46562 12.5031 9.42813 12.5469 9.39375V9.5V9.67813V10.5ZM13.5469 10.5V9.5V8.69063C14.1406 8.55937 14.6875 8.39375 15.175 8.19063C15.6844 7.97813 16.1594 7.71563 16.5469 7.39375V8.5C16.5469 8.82812 16.3906 9.15625 16.0813 9.46562C15.5719 9.975 14.675 10.3937 13.5406 10.6656C13.5437 10.6125 13.5469 10.5562 13.5469 10.5ZM6.54688 14C8.30312 14 9.94063 13.7063 11.175 13.1906C11.6844 12.9781 12.1594 12.7156 12.5469 12.3938V13.5C12.5469 14.8813 9.85938 16 6.54688 16C3.23438 16 0.546875 14.8813 0.546875 13.5V12.3938C0.9375 12.7156 1.40938 12.9781 1.91875 13.1906C3.15313 13.7063 4.79063 14 6.54688 14Z" fill="white"/>
</g>
<defs>
<clipPath id="clip0_215_4591">
<path d="M0.546875 0H16.5469V16H0.546875V0Z" fill="white"/>
</clipPath>
</defs>
</svg>
