<svg width="60" height="17" viewBox="0 0 60 17" fill="none" xmlns="http://www.w3.org/2000/svg">
<path d="M0.0390625 16.12H16.0391V0.12H0.0390625V16.12ZM31.1754 3.36364V15H29.8118L23.4709 5.86364H23.3572V15H21.9482V3.36364H23.3118L29.6754 12.5227H29.7891V3.36364H31.1754ZM37.3587 15.1818C36.5708 15.1818 35.8795 14.9943 35.2848 14.6193C34.6939 14.2443 34.2318 13.7197 33.8984 13.0455C33.5689 12.3712 33.4041 11.5833 33.4041 10.6818C33.4041 9.77273 33.5689 8.97917 33.8984 8.30114C34.2318 7.62311 34.6939 7.09659 35.2848 6.72159C35.8795 6.34659 36.5708 6.15909 37.3587 6.15909C38.1465 6.15909 38.8359 6.34659 39.4268 6.72159C40.0215 7.09659 40.4837 7.62311 40.8132 8.30114C41.1465 8.97917 41.3132 9.77273 41.3132 10.6818C41.3132 11.5833 41.1465 12.3712 40.8132 13.0455C40.4837 13.7197 40.0215 14.2443 39.4268 14.6193C38.8359 14.9943 38.1465 15.1818 37.3587 15.1818ZM37.3587 13.9773C37.9571 13.9773 38.4496 13.8239 38.8359 13.517C39.2223 13.2102 39.5083 12.8068 39.6939 12.3068C39.8795 11.8068 39.9723 11.2652 39.9723 10.6818C39.9723 10.0985 39.8795 9.55492 39.6939 9.05114C39.5083 8.54735 39.2223 8.14015 38.8359 7.82955C38.4496 7.51894 37.9571 7.36364 37.3587 7.36364C36.7602 7.36364 36.2678 7.51894 35.8814 7.82955C35.495 8.14015 35.209 8.54735 35.0234 9.05114C34.8378 9.55492 34.745 10.0985 34.745 10.6818C34.745 11.2652 34.8378 11.8068 35.0234 12.3068C35.209 12.8068 35.495 13.2102 35.8814 13.517C36.2678 13.8239 36.7602 13.9773 37.3587 13.9773ZM50.1839 6.27273L46.9567 15H45.593L42.3658 6.27273H43.8203L46.2294 13.2273H46.3203L48.7294 6.27273H50.1839ZM55.1868 15.1818C54.3989 15.1818 53.7076 14.9943 53.1129 14.6193C52.522 14.2443 52.0599 13.7197 51.7266 13.0455C51.397 12.3712 51.2322 11.5833 51.2322 10.6818C51.2322 9.77273 51.397 8.97917 51.7266 8.30114C52.0599 7.62311 52.522 7.09659 53.1129 6.72159C53.7076 6.34659 54.3989 6.15909 55.1868 6.15909C55.9747 6.15909 56.6641 6.34659 57.255 6.72159C57.8497 7.09659 58.3118 7.62311 58.6413 8.30114C58.9747 8.97917 59.1413 9.77273 59.1413 10.6818C59.1413 11.5833 58.9747 12.3712 58.6413 13.0455C58.3118 13.7197 57.8497 14.2443 57.255 14.6193C56.6641 14.9943 55.9747 15.1818 55.1868 15.1818ZM55.1868 13.9773C55.7853 13.9773 56.2777 13.8239 56.6641 13.517C57.0504 13.2102 57.3364 12.8068 57.522 12.3068C57.7076 11.8068 57.8004 11.2652 57.8004 10.6818C57.8004 10.0985 57.7076 9.55492 57.522 9.05114C57.3364 8.54735 57.0504 8.14015 56.6641 7.82955C56.2777 7.51894 55.7853 7.36364 55.1868 7.36364C54.5883 7.36364 54.0959 7.51894 53.7095 7.82955C53.3232 8.14015 53.0372 8.54735 52.8516 9.05114C52.666 9.55492 52.5732 10.0985 52.5732 10.6818C52.5732 11.2652 52.666 11.8068 52.8516 12.3068C53.0372 12.8068 53.3232 13.2102 53.7095 13.517C54.0959 13.8239 54.5883 13.9773 55.1868 13.9773Z" fill="#18A5F8"/>
</svg>