<svg width="13" height="16" viewBox="0 0 13 16" fill="none" xmlns="http://www.w3.org/2000/svg">
<path d="M10.6375 1.39354C10.8219 0.965419 10.6844 0.465419 10.3062 0.190419C9.92812 -0.0845806 9.4125 -0.0595806 9.05937 0.246669L1.05937 7.24667C0.746873 7.52167 0.634373 7.96229 0.781248 8.34979C0.928123 8.73729 1.30312 8.99979 1.71875 8.99979H5.20312L2.8 14.606C2.61562 15.0342 2.75312 15.5342 3.13125 15.8092C3.50937 16.0842 4.025 16.0592 4.37812 15.7529L12.3781 8.75292C12.6906 8.47792 12.8031 8.03729 12.6562 7.64979C12.5094 7.26229 12.1375 7.00292 11.7187 7.00292H8.23437L10.6375 1.39354Z" fill="#9A1794"/>
</svg>