<svg width="28" height="30" viewBox="0 0 28 30" fill="none" xmlns="http://www.w3.org/2000/svg">
<path d="M27.1252 12.2994C24.5456 12.3056 22.0293 11.5011 19.9316 9.99961V20.4715C19.9309 22.411 19.3381 24.3041 18.2325 25.8975C17.1268 27.491 15.561 28.709 13.7445 29.3886C11.9279 30.0682 9.94721 30.177 8.06716 29.7005C6.1871 29.2239 4.49733 28.1848 3.2238 26.722C1.95026 25.2592 1.15366 23.4425 0.940511 21.5147C0.727364 19.5869 1.10783 17.6401 2.03103 15.9344C2.95424 14.2287 4.37618 12.8455 6.10672 11.9698C7.83726 11.094 9.79391 10.7675 11.715 11.0338V16.3008C10.8359 16.0243 9.89192 16.0326 9.01782 16.3246C8.14372 16.6166 7.38424 17.1773 6.84783 17.9267C6.31142 18.6761 6.02552 19.5758 6.03094 20.4973C6.03637 21.4189 6.33286 22.3152 6.87806 23.0582C7.42326 23.8012 8.18929 24.3529 9.06677 24.6346C9.94425 24.9163 10.8883 24.9135 11.7641 24.6266C12.6399 24.3398 13.4026 23.7835 13.9434 23.0373C14.4842 22.2911 14.7754 21.3931 14.7754 20.4715V0H19.9316C19.9281 0.435434 19.9645 0.870274 20.0406 1.29902C20.2198 2.25614 20.5924 3.16665 21.1355 3.97484C21.6786 4.78304 22.3809 5.47195 23.1994 5.99941C24.3639 6.76939 25.7292 7.17979 27.1252 7.17949V12.2994Z" fill="#18A5F8"/>
</svg>
