<svg width="30" height="30" viewBox="0 0 30 30" fill="none" xmlns="http://www.w3.org/2000/svg">
<g clip-path="url(#clip0_215_4397)">
<g clip-path="url(#clip1_215_4397)">
<path d="M14.2622 0.152344L1.13715 5.77734C0.316841 6.12891 -0.14019 7.00781 0.0414505 7.875C0.223091 8.74219 0.98481 9.375 1.87543 9.375V9.84375C1.87543 10.623 2.50239 11.25 3.28168 11.25H26.7192C27.4985 11.25 28.1254 10.623 28.1254 9.84375V9.375C29.0161 9.375 29.7836 8.74805 29.9594 7.875C30.1352 7.00195 29.6782 6.12305 28.8637 5.77734L15.7387 0.152344C15.27 -0.046875 14.7309 -0.046875 14.2622 0.152344ZM7.50043 13.125H3.75043V24.627C3.71528 24.6445 3.68012 24.668 3.64497 24.6914L0.832466 26.5664C0.146919 27.0234 -0.163628 27.8789 0.0766067 28.6699C0.316841 29.4609 1.04926 30 1.87543 30H28.1254C28.9516 30 29.6782 29.4609 29.9184 28.6699C30.1586 27.8789 29.854 27.0234 29.1625 26.5664L26.35 24.6914C26.3149 24.668 26.2797 24.6504 26.2446 24.627V13.125H22.5004V24.375H20.1567V13.125H16.4067V24.375H13.5942V13.125H9.84418V24.375H7.50043V13.125ZM15.0004 3.75C15.4977 3.75 15.9746 3.94754 16.3263 4.29917C16.6779 4.6508 16.8754 5.12772 16.8754 5.625C16.8754 6.12228 16.6779 6.59919 16.3263 6.95083C15.9746 7.30246 15.4977 7.5 15.0004 7.5C14.5032 7.5 14.0262 7.30246 13.6746 6.95083C13.323 6.59919 13.1254 6.12228 13.1254 5.625C13.1254 5.12772 13.323 4.6508 13.6746 4.29917C14.0262 3.94754 14.5032 3.75 15.0004 3.75Z" fill="#18A5F8"/>
</g>
</g>
<defs>
<clipPath id="clip0_215_4397">
<rect width="30" height="30" fill="white"/>
</clipPath>
<clipPath id="clip1_215_4397">
<path d="M0 0H30V30H0V0Z" fill="white"/>
</clipPath>
</defs>
</svg>
