<svg width="30" height="30" viewBox="0 0 30 30" fill="none" xmlns="http://www.w3.org/2000/svg">
<g clip-path="url(#clip0_215_4406)">
<path d="M12.3637 0.427687C12.0122 0.0585463 11.4848 -0.0820787 10.9926 0.0468275C10.5004 0.175734 10.1196 0.568312 9.99068 1.0605L9.06489 4.72261L5.43208 3.69722C4.93989 3.55659 4.41255 3.69722 4.05513 4.05464C3.69771 4.41206 3.55708 4.93941 3.69771 5.43159L4.7231 9.06441L1.06099 9.99605C0.5688 10.1191 0.182081 10.5058 0.0473158 10.998C-0.0874498 11.4902 0.0590346 12.0117 0.428175 12.3632L3.13521 15L0.428175 17.6367C0.0590346 17.9882 -0.0815904 18.5156 0.0473158 19.0078C0.176222 19.5 0.5688 19.8808 1.06099 20.0097L4.7231 20.9355L3.69771 24.5683C3.55708 25.0605 3.69771 25.5878 4.05513 25.9453C4.41255 26.3027 4.93989 26.4433 5.43208 26.3027L9.06489 25.2773L9.99068 28.9394C10.1137 29.4316 10.5004 29.8183 10.9926 29.9531C11.4848 30.0878 12.0063 29.9414 12.3637 29.5781L15.0004 26.871L17.6372 29.5781C17.9946 29.9414 18.5161 30.0878 19.0083 29.9531C19.5004 29.8183 19.8813 29.4316 20.0102 28.9394L20.936 25.2773L24.5688 26.3027C25.061 26.4433 25.5883 26.3027 25.9458 25.9453C26.3032 25.5878 26.4438 25.0605 26.3032 24.5683L25.2778 20.9355L28.9399 20.0097C29.4321 19.8867 29.8188 19.5 29.9536 19.0078C30.0883 18.5156 29.9418 17.9941 29.5786 17.6367L26.8715 15L29.5786 12.3632C29.9418 12.0058 30.0883 11.4843 29.9536 10.9921C29.8188 10.5 29.4321 10.1191 28.9399 9.99019L25.2778 9.06441L26.3032 5.43159C26.4438 4.93941 26.3032 4.41206 25.9458 4.05464C25.5883 3.69722 25.061 3.55659 24.5688 3.69722L20.936 4.72261L20.0043 1.0605C19.8813 0.568312 19.4946 0.181593 19.0024 0.0468275C18.5102 -0.0879381 17.9887 0.0585463 17.6372 0.427687L15.0004 3.13472L12.3637 0.427687Z" fill="#9A1794"/>
</g>
<defs>
<clipPath id="clip0_215_4406">
<path d="M0 0H30V30H0V0Z" fill="white"/>
</clipPath>
</defs>
</svg>
