<svg width="38" height="30" viewBox="0 0 38 30" fill="none" xmlns="http://www.w3.org/2000/svg">
<path d="M15.25 3.75H22.75V7.5H15.25V3.75ZM14.3125 0C12.7598 0 11.5 1.25977 11.5 2.8125V8.4375C11.5 9.99023 12.7598 11.25 14.3125 11.25H17.125V13.125H2.125C1.08789 13.125 0.25 13.9629 0.25 15C0.25 16.0371 1.08789 16.875 2.125 16.875H7.75V18.75H4.9375C3.38477 18.75 2.125 20.0098 2.125 21.5625V27.1875C2.125 28.7402 3.38477 30 4.9375 30H14.3125C15.8652 30 17.125 28.7402 17.125 27.1875V21.5625C17.125 20.0098 15.8652 18.75 14.3125 18.75H11.5V16.875H26.5V18.75H23.6875C22.1348 18.75 20.875 20.0098 20.875 21.5625V27.1875C20.875 28.7402 22.1348 30 23.6875 30H33.0625C34.6152 30 35.875 28.7402 35.875 27.1875V21.5625C35.875 20.0098 34.6152 18.75 33.0625 18.75H30.25V16.875H35.875C36.9121 16.875 37.75 16.0371 37.75 15C37.75 13.9629 36.9121 13.125 35.875 13.125H20.875V11.25H23.6875C25.2402 11.25 26.5 9.99023 26.5 8.4375V2.8125C26.5 1.25977 25.2402 0 23.6875 0H14.3125ZM5.875 26.25V22.5H13.375V26.25H5.875ZM24.625 22.5H32.125V26.25H24.625V22.5Z" fill="#9A1794"/>
</svg>
