<svg width="50" height="50" viewBox="0 0 50 50" fill="none" xmlns="http://www.w3.org/2000/svg">
<path d="M49.1378 41.3792H0.862108C0.386034 41.3792 0 40.9932 0 40.5171V9.48271C0 9.00664 0.386034 8.62061 0.862108 8.62061H49.1379C49.614 8.62061 50 9.00664 50 9.48271V40.5171C49.9999 40.9933 49.6139 41.3792 49.1378 41.3792Z" fill="#73AF00"/>
<path d="M24.5521 13.2038L6.38264 24.2635C5.83079 24.5993 5.83079 25.4003 6.38264 25.7362L24.5521 36.796C24.8274 36.9635 25.1732 36.9635 25.4486 36.796L43.6182 25.7363C44.1701 25.4005 44.1701 24.5995 43.6182 24.2636L25.4486 13.2038C25.1733 13.0362 24.8274 13.0362 24.5521 13.2038Z" fill="#FFE15A"/>
<path d="M25 31.8965C28.8088 31.8965 31.8965 28.8088 31.8965 25C31.8965 21.1912 28.8088 18.1035 25 18.1035C21.1912 18.1035 18.1035 21.1912 18.1035 25C18.1035 28.8088 21.1912 31.8965 25 31.8965Z" fill="#41479B"/>
<path d="M19.0825 21.4721C18.7571 22.0168 18.5059 22.6088 18.3398 23.2374C22.163 22.9497 27.8185 24.0192 31.4181 27.5121C31.6531 26.9124 31.8082 26.2735 31.8664 25.6057C28.1495 22.4774 23.0109 21.365 19.0825 21.4721Z" fill="#F5F5F5"/>
<path d="M25.2849 27.3535L25.4685 27.9041L26.0489 27.9086C26.124 27.9092 26.1551 28.0051 26.0948 28.0497L25.6279 28.3945L25.803 28.9478C25.8256 29.0195 25.744 29.0788 25.683 29.0351L25.2108 28.6976L24.7386 29.0351C24.6775 29.0788 24.596 29.0195 24.6186 28.9478L24.7937 28.3945L24.3268 28.0497C24.2664 28.0051 24.2975 27.9092 24.3726 27.9086L24.953 27.9041L25.1366 27.3535C25.1603 27.2822 25.2611 27.2822 25.2849 27.3535Z" fill="#F5F5F5"/>
<path d="M27.5415 28.778L27.6205 29.0149L27.8703 29.0168C27.9027 29.017 27.9161 29.0583 27.8901 29.0776L27.6891 29.2259L27.7644 29.4641C27.7742 29.4949 27.7391 29.5204 27.7127 29.5016L27.5095 29.3564L27.3063 29.5016C27.28 29.5204 27.2449 29.4949 27.2546 29.4641L27.3299 29.2259L27.1289 29.0776C27.103 29.0584 27.1163 29.0171 27.1487 29.0168L27.3985 29.0149L27.4775 28.778C27.4878 28.7472 27.5313 28.7472 27.5415 28.778Z" fill="#F5F5F5"/>
<path d="M24.3111 26.3077L24.3901 26.5446L24.6399 26.5465C24.6722 26.5467 24.6857 26.588 24.6596 26.6073L24.4586 26.7556L24.5339 26.9938C24.5437 27.0247 24.5086 27.0501 24.4823 27.0313L24.279 26.8861L24.0758 27.0313C24.0495 27.0501 24.0144 27.0247 24.0242 26.9938L24.0994 26.7556L23.8985 26.6073C23.8725 26.5881 23.8859 26.5468 23.9182 26.5465L24.168 26.5446L24.247 26.3077C24.2574 26.277 24.3008 26.277 24.3111 26.3077Z" fill="#F5F5F5"/>
<path d="M19.9341 26.0203L20.0131 26.2572L20.2629 26.2592C20.2952 26.2594 20.3087 26.3007 20.2827 26.3199L20.0817 26.4683L20.157 26.7064C20.1667 26.7373 20.1317 26.7628 20.1053 26.7439L19.9021 26.5987L19.6989 26.7439C19.6726 26.7628 19.6374 26.7373 19.6472 26.7064L19.7225 26.4683L19.5215 26.3199C19.4955 26.3008 19.5089 26.2595 19.5412 26.2592L19.7911 26.2572L19.8701 26.0203C19.8805 25.9896 19.9239 25.9896 19.9341 26.0203Z" fill="#F5F5F5"/>
<path d="M23.5962 28.696L23.6752 28.9329L23.925 28.9349C23.9574 28.9351 23.9708 28.9764 23.9448 28.9956L23.7438 29.144L23.8191 29.3821C23.8288 29.413 23.7938 29.4385 23.7674 29.4196L23.5642 29.2744L23.361 29.4196C23.3347 29.4385 23.2995 29.413 23.3093 29.3821L23.3846 29.144L23.1836 28.9956C23.1577 28.9765 23.171 28.9352 23.2034 28.9349L23.4532 28.9329L23.5322 28.696C23.5426 28.6655 23.5861 28.6655 23.5962 28.696Z" fill="#F5F5F5"/>
<path d="M21.5809 25.855L21.6456 26.0488L21.8499 26.0504C21.8762 26.0506 21.8873 26.0844 21.8661 26.1001L21.7017 26.2214L21.7633 26.4161C21.7714 26.4413 21.7426 26.4622 21.7211 26.4468L21.5548 26.3281L21.3886 26.4468C21.3671 26.4622 21.3384 26.4413 21.3464 26.4161L21.408 26.2214L21.2436 26.1001C21.2224 26.0844 21.2333 26.0506 21.2598 26.0504L21.4641 26.0488L21.5288 25.855C21.5371 25.8299 21.5725 25.8299 21.5809 25.855Z" fill="#F5F5F5"/>
<path d="M27.7172 21.8549L27.798 22.0973L28.0535 22.0992C28.0866 22.0994 28.1003 22.1417 28.0736 22.1613L27.8682 22.3131L27.9452 22.5567C27.9553 22.5883 27.9192 22.6144 27.8924 22.5951L27.6845 22.4465L27.4766 22.5951C27.4496 22.6144 27.4138 22.5882 27.4237 22.5567L27.5008 22.3131L27.2953 22.1613C27.2687 22.1417 27.2824 22.0995 27.3154 22.0992L27.5709 22.0973L27.6518 21.8549C27.6623 21.8234 27.7067 21.8234 27.7172 21.8549Z" fill="#F5F5F5"/>
<path d="M20.2157 24.6697L20.2803 24.8635L20.4846 24.8651C20.511 24.8653 20.522 24.8991 20.5008 24.9148L20.3365 25.0361L20.3981 25.2308C20.4061 25.256 20.3774 25.2769 20.3558 25.2615L20.1896 25.1427L20.0234 25.2615C20.0018 25.2769 19.9732 25.256 19.9811 25.2308L20.0427 25.0361L19.8784 24.9148C19.8572 24.8991 19.868 24.8654 19.8946 24.8651L20.0989 24.8635L20.1635 24.6697C20.1718 24.6446 20.2073 24.6446 20.2157 24.6697Z" fill="#F5F5F5"/>
<path d="M21.2018 27.4005L21.2996 27.694L21.609 27.6964C21.649 27.6967 21.6656 27.7478 21.6334 27.7716L21.3845 27.9554L21.4778 28.2503C21.49 28.2885 21.4465 28.3201 21.4139 28.2968L21.1621 28.1169L20.9104 28.2968C20.8778 28.32 20.8343 28.2885 20.8464 28.2503L20.9398 27.9554L20.6908 27.7716C20.6586 27.7478 20.6752 27.6967 20.7152 27.6964L21.0246 27.694L21.1225 27.4005C21.1355 27.3626 21.1892 27.3626 21.2018 27.4005Z" fill="#F5F5F5"/>
<path d="M28.7989 28.8395L28.8605 29.0241L29.0551 29.0256C29.0803 29.0258 29.0907 29.0579 29.0705 29.0729L28.914 29.1885L28.9727 29.374C28.9803 29.3981 28.9529 29.4179 28.9323 29.4032L28.774 29.2901L28.6156 29.4032C28.5951 29.4179 28.5678 29.3981 28.5753 29.374L28.634 29.1885L28.4774 29.0729C28.4572 29.0579 28.4677 29.0258 28.4929 29.0256L28.6875 29.0241L28.749 28.8395C28.7571 28.8156 28.791 28.8156 28.7989 28.8395Z" fill="#F5F5F5"/>
<path d="M29.481 27.4301L29.56 27.667L29.8098 27.6689C29.8421 27.6691 29.8556 27.7104 29.8295 27.7297L29.6285 27.878L29.7038 28.1162C29.7136 28.147 29.6785 28.1725 29.6522 28.1537L29.449 28.0085L29.2457 28.1537C29.2195 28.1725 29.1843 28.147 29.1941 28.1162L29.2694 27.878L29.0684 27.7297C29.0424 27.7105 29.0558 27.6692 29.0881 27.6689L29.3379 27.667L29.4169 27.4301C29.4273 27.3993 29.4707 27.3993 29.481 27.4301Z" fill="#F5F5F5"/>
</svg>